<?xml version="1.0" standalone="no"?>
<!DOCTYPE svg PUBLIC "-//W3C//DTD SVG 20010904//EN"
 "http://www.w3.org/TR/2001/REC-SVG-20010904/DTD/svg10.dtd">
<svg version="1.0" xmlns="http://www.w3.org/2000/svg"
 width="1024.000000pt" height="1024.000000pt" viewBox="0 0 1024.000000 1024.000000"
 preserveAspectRatio="xMidYMid meet">

<g transform="translate(0.000000,1024.000000) scale(0.100000,-0.100000)"
fill="#000000" stroke="none">
<path d="M1950 5606 c-108 -24 -202 -95 -238 -179 -20 -46 -15 -151 9 -202 37
-78 92 -116 236 -164 218 -73 263 -104 263 -183 0 -80 -79 -138 -186 -138 -89
0 -132 18 -195 80 l-57 56 -51 -46 c-28 -25 -51 -50 -51 -56 0 -28 92 -112
152 -140 60 -27 70 -29 198 -29 128 0 138 2 197 29 68 31 135 95 159 151 22
52 18 157 -7 210 -37 78 -96 116 -269 174 -124 42 -154 56 -195 92 -43 38 -53
83 -31 131 23 47 66 70 145 76 91 6 144 -10 201 -64 26 -24 51 -44 56 -44 6 0
31 22 57 48 l48 48 -23 30 c-34 44 -58 63 -108 86 -98 46 -204 57 -310 34z"/>
<path d="M2665 5600 l-80 -5 0 -490 0 -490 88 -3 c66 -2 87 0 87 10 1 7 1 83
0 168 l0 155 44 48 c25 26 51 47 58 47 7 0 28 -22 45 -48 18 -26 51 -72 73
-102 22 -30 58 -80 80 -110 22 -30 58 -81 80 -112 l41 -58 99 0 c55 0 100 2
100 5 0 3 -29 44 -65 90 -36 47 -95 124 -132 173 -146 189 -203 267 -203 277
0 6 13 24 28 40 15 17 83 95 152 175 68 80 139 161 157 180 18 19 33 38 33 43
0 4 -44 7 -97 7 l-98 -1 -173 -202 c-94 -112 -179 -213 -188 -225 -8 -12 -19
-22 -25 -22 -5 0 -9 90 -9 224 0 124 -3 226 -7 228 -5 2 -44 1 -88 -2z"/>
<path d="M3530 5593 c-2 -97 1 -978 4 -981 6 -6 155 -6 161 0 3 3 6 225 6 494
l0 489 -86 3 c-47 1 -85 -1 -85 -5z"/>
<path d="M3945 5588 c-3 -7 -4 -229 -3 -493 l3 -480 78 -3 c58 -2 77 0 77 10
0 7 0 163 0 346 0 182 3 332 8 332 4 0 15 -13 25 -29 9 -16 38 -57 64 -92 47
-64 110 -150 212 -289 130 -178 196 -265 206 -272 5 -4 34 -8 63 -8 l52 0 0
490 0 491 -77 -3 -78 -3 0 -328 c0 -180 -3 -327 -6 -327 -3 0 -29 30 -56 68
-27 37 -96 130 -153 207 -57 77 -146 197 -198 268 l-95 127 -59 0 c-38 0 -60
-4 -63 -12z"/>
<path d="M4975 5588 c-3 -7 -4 -229 -3 -493 l3 -480 78 -3 c58 -2 77 0 77 10
1 7 0 167 0 356 0 229 3 342 9 337 6 -3 26 -38 45 -78 66 -139 228 -472 232
-476 3 -3 65 -4 101 -2 12 1 59 93 162 314 17 37 44 95 60 130 16 34 36 76 43
92 11 26 14 -20 18 -325 l5 -355 80 0 80 0 3 470 c1 259 0 480 -3 493 -5 22
-9 23 -98 20 l-92 -3 -47 -95 c-26 -52 -92 -188 -147 -302 -55 -115 -104 -208
-108 -208 -8 0 -71 126 -224 445 -40 83 -77 153 -83 157 -20 14 -186 9 -191
-4z"/>
<path d="M6470 5597 c0 -2 -14 -42 -31 -88 -17 -46 -34 -95 -39 -109 -5 -14
-22 -63 -40 -110 -55 -150 -71 -194 -90 -250 -10 -30 -26 -75 -35 -100 -9 -25
-26 -70 -37 -100 -11 -30 -24 -64 -28 -75 -38 -97 -50 -130 -50 -142 0 -11 17
-13 83 -11 l82 3 40 120 40 120 200 0 200 0 40 -120 40 -120 84 -3 c76 -3 83
-1 78 15 -3 10 -21 63 -42 118 -20 55 -40 111 -45 125 -4 14 -31 90 -60 170
-29 80 -56 156 -60 170 -5 14 -32 90 -60 170 -28 80 -57 161 -63 180 l-12 35
-98 3 c-53 1 -97 1 -97 -1z m129 -255 c35 -111 98 -304 106 -324 7 -17 -4 -18
-140 -18 -136 0 -147 1 -142 18 5 13 109 322 132 390 9 26 21 9 44 -66z"/>
<path d="M6990 5530 c0 -49 4 -70 13 -70 6 -1 71 -2 142 -3 l130 -2 3 -422 2
-423 90 0 90 0 2 423 3 422 145 5 c80 3 144 8 143 13 -2 4 -3 34 -3 67 l0 60
-380 0 -380 0 0 -70z"/>
<path d="M7910 5105 l0 -495 310 0 311 0 -3 73 -3 72 -205 1 c-113 1 -211 2
-218 3 -10 1 -12 34 -10 144 l3 142 188 3 187 2 0 65 0 65 -187 2 -188 3 0
135 0 135 218 3 217 2 0 70 0 70 -310 0 -310 0 0 -495z"/>
</g>
</svg>
